PathFileType	4	(X/Y/Z)	Patient4_TMGait_0pt6_01_right_43.trc.trc
DataRate	CameraRate	NumFrames	NumMarkers	Units	OrigDataRate	OrigDataStartFrame	OrigNumFrames
83.333333333333	83.333333333333	4	33	mm	83.333333333333	71	       141
Frame#	Time	Sacral			L.Shoulder			Chest			R.Shoulder			Neck			R.ASIS			L.ASIS			R.Thigh.Superior			R.Thigh.Lateral			R.Thigh.Inferior			R.Patella			L.Thigh.Superior			L.Thigh.Lateral			L.Thigh.Inferior			L.Patella			L.Shank.Superior			L.Shank.Lateral			L.Shank.Inferior			R.Shank.Superior			R.Shank.Lateral			R.Shank.Inferior			R.Heel			R.Midfoot.Superior			R.Midfoot.Lateral			R.Toe			L.Heel			L.Midfoot.Lateral			L.Midfoot.Superior			L.Toe			L.Elbow			L.Wrist			R.Elbow			R.Wrist			
		X1	Y1	Z1	X2	Y2	Z2	X3	Y3	Z3	X4	Y4	Z4	X5	Y5	Z5	X6	Y6	Z6	X7	Y7	Z7	X8	Y8	Z8	X9	Y9	Z9	X10	Y10	Z10	X11	Y11	Z11	X12	Y12	Z12	X13	Y13	Z13	X14	Y14	Z14	X15	Y15	Z15	X16	Y16	Z16	X17	Y17	Z17	X18	Y18	Z18	X19	Y19	Z19	X20	Y20	Z20	X21	Y21	Z21	X22	Y22	Z22	X23	Y23	Z23	X24	Y24	Z24	X25	Y25	Z25	X26	Y26	Z26	X27	Y27	Z27	X28	Y28	Z28	X29	Y29	Z29	X30	Y30	Z30	X31	Y31	Z31	X32	Y32	Z32	X33	Y33	Z33	

71	52.560000000000	787.628353775614	1005.228436971903	487.619167030017	949.315797225799	1430.370984652815	298.511641485852	1068.415667268645	1354.646361297342	443.516342790610	1009.347599365394	1427.374395248771	626.018581149908	968.658864744537	1488.701589847732	449.749825292280	1016.651079210195	932.470453313443	587.644740974327	986.954148912428	952.248257191899	313.614703781508	1011.049538643815	718.992253137487	560.023693368272	905.464608239892	627.434995699331	622.189777814839	963.136873795910	560.558568862661	540.778928471505	941.911883008122	476.033679013012	543.376199344977	1061.064002294321	767.952923577224	349.604783183087	1008.701011039216	637.616116424218	277.284796361930	1109.306856858515	579.245285337994	342.340492965662	1132.408103753329	512.537893104990	342.498340752665	1116.693203659431	440.349405353871	333.306211661796	1051.371405326943	309.288616582464	285.596985399317	1137.549325527068	212.342383011229	345.281713612629	902.417377527651	393.554028686809	549.783797283720	817.910040057268	300.406681404839	611.686507997197	843.178911363959	201.594233041960	545.941513352781	690.426871068836	45.107823656514	514.309510892973	862.498851321865	95.863249487157	551.434981982917	772.554637084869	37.056530516149	589.338683715667	981.025496527928	40.228068394618	581.522424845503	1052.198804208821	38.309119184415	388.694618885575	1124.965745106498	40.136345187253	307.206723234492	1198.683957067285	113.652471123303	327.149597705507	1330.853317587985	78.714099248206	299.421541862229	820.514444659650	1096.585592482327	201.529791929881	795.522557892897	838.715749183591	200.291394107212	1159.588300585682	1119.965545084378	721.643790358699	1359.566710251950	1230.552612926362	621.396969649025	
72	52.572000000000	789.197044362179	1003.855217058134	485.637879866050	949.685244399814	1429.062333139367	296.476141486377	1068.916598798906	1353.911411362821	441.725725436564	1009.149627216861	1426.540375448379	624.092183457513	968.502533187435	1487.599786732090	447.727562357356	1018.135458853378	931.192645623057	586.336440066910	989.077675812651	950.818499659827	312.375167726380	1011.799529882148	717.474015305919	559.378763779429	905.169258425319	626.470623285662	621.030597310365	962.737225570829	559.084936189620	539.933460941187	940.741133214395	474.125470560555	542.323663439120	1062.563533136032	765.466334749990	349.049748786722	1008.965722179035	635.790244080499	276.779873578185	1108.992247754725	576.956928463643	342.454457753987	1130.682511578134	509.466123136228	342.894884436227	1114.588284412390	437.234454050001	333.265585717072	1047.712075581246	306.926532569554	285.591560553206	1132.420797363956	209.015603099555	345.764560803378	900.043892117108	392.230172536379	548.856593291938	814.162423481494	300.386406697724	611.052966812511	837.795339054461	201.103071294773	545.571076783473	683.279984140835	45.825967657498	514.469039151527	855.521926895196	95.935410952462	551.443065356915	765.428610370753	37.365957625157	589.355972403840	973.871775955609	39.875622826119	581.657025396934	1043.866929816429	37.493145325298	389.298207410535	1116.350621622642	38.146240054998	307.448608568778	1192.166839747580	109.226015723006	328.047362562438	1323.486081017820	70.706030314569	299.533115224152	821.346911384103	1095.109642549809	199.696547606807	797.552461331660	837.048753897774	198.793187110305	1160.261968492214	1119.299262332918	719.867284685106	1356.110732400073	1234.764250868000	617.724550059130	
73	52.584000000000	790.673296131466	1002.639728767452	483.620630075044	950.225415952117	1427.789362435767	294.310341770483	1069.532093219080	1353.226730085208	439.864883942724	1009.064427686153	1425.860078966784	622.062556476790	968.507109740707	1486.608838702415	445.546429567521	1019.560539462958	929.978823236022	584.923640979543	991.069580521485	949.641115114043	311.074835511840	1012.751914822389	716.075685933531	558.472984830780	905.288880971952	625.496518778141	619.652098273966	962.826631298058	557.675553221345	538.826352614227	940.171504009514	472.108013884186	541.080436556424	1064.106401350462	763.438830632753	348.479775094180	1009.531129015022	634.487349878086	276.086592158824	1109.002117242706	575.226738905184	342.394765822964	1129.321455021980	506.998691799025	343.059756920234	1112.915483943474	434.674978951770	333.012177626406	1044.652367740511	305.106381643259	285.249545961654	1127.798212102912	206.293408581258	346.011146987630	898.100345461388	390.870477539432	547.763315632761	810.776582090030	300.479113646091	610.311823208917	832.628960402446	200.711292449294	545.138506718453	676.178366640593	46.871009641244	514.651562274548	848.662812531573	96.081527841148	551.460850552179	758.352648173518	37.838948094743	589.375331767214	966.758440107257	39.506447519742	581.791464961820	1036.086431477190	37.104273946168	389.702560327131	1108.316278902625	36.716709118485	307.527120231514	1186.007915119190	105.566233788966	328.749265946174	1316.511750493540	63.839655749526	299.545426574938	822.919688843771	1093.373702130700	197.706749458027	800.531929438357	835.103794564994	197.145166365477	1160.283519180908	1118.339205990760	718.302627763663	1352.573706549767	1237.626794261889	614.337872923599	
74	52.596000000000	792.037638324375	1001.653209585132	481.586213680270	950.918739818223	1426.631408032354	292.047120274198	1070.259420689932	1352.644682747094	437.939174751297	1009.143815769646	1425.395745423048	619.947951151289	968.687897669051	1485.794560448590	443.240715813377	1020.897092819020	928.910791625356	583.382379684724	992.883818782173	948.797422702563	309.670750306593	1013.884872084064	714.877534848142	557.256195462290	905.867247800453	624.560563369587	618.060306226196	963.468379282589	556.388395855627	537.467327302425	940.305426975502	470.014928347909	539.715529049667	1065.698983680186	762.023380474259	347.822827060396	1010.413796533850	633.755181271773	275.232161043470	1109.365224570243	574.103200305830	342.100988155222	1128.379257267249	505.183640011249	342.982904793257	1111.686716533397	432.697621043348	332.599077908078	1042.172587813763	303.877307001070	284.599677109052	1123.594138273721	204.190171264871	346.068423699658	896.648428523405	389.517105832903	546.553079925439	807.797904207057	300.756734422794	609.490853827539	827.735642046523	200.485761723033	544.677501595378	669.148231988136	48.355663973321	514.857440577623	841.970857861887	96.317225808187	551.509159293513	751.342462778980	38.527721075337	589.399692836860	959.691674371213	39.127581949704	581.918248783572	1028.791797448703	37.060418501198	389.930987242372	1100.809041745484	35.802319585413	307.479000273022	1180.084443597068	102.725170655163	329.263852206410	1309.850853183695	58.304760867641	299.484661332923	825.228626438223	1091.465904863103	195.583762624866	804.455093732288	832.971246930449	195.346649517598	1159.588678557701	1117.117734536994	716.956164687917	1349.011257672117	1239.135415276272	611.241954988902	
